<?xml version="1.0" standalone="no"?>
<!DOCTYPE svg PUBLIC "-//W3C//DTD SVG 20010904//EN"
 "http://www.w3.org/TR/2001/REC-SVG-20010904/DTD/svg10.dtd">
<svg version="1.0" xmlns="http://www.w3.org/2000/svg"
 width="1080.000000pt" height="1080.000000pt" viewBox="0 0 1080.000000 1080.000000"
 preserveAspectRatio="xMidYMid meet">
<metadata>
Created by potrace 1.14, written by Peter Selinger 2001-2017
</metadata>
<g transform="translate(0.000000,1080.000000) scale(0.100000,-0.100000)"
fill="#000000" stroke="none">
<path d="M0 5690 c0 -3038 4 -5110 9 -5110 19 0 222 122 266 161 11 9 65 41
120 69 55 29 120 67 145 85 46 32 95 56 75 36 -12 -12 -114 -76 -158 -98 -15
-8 -37 -28 -49 -43 -12 -16 -33 -32 -47 -35 -14 -3 -57 -26 -96 -50 -79 -50
-149 -93 -215 -134 l-45 -27 -3 -272 -2 -272 450 0 c286 0 450 4 450 10 0 5
24 28 53 51 43 34 97 81 201 174 6 6 29 23 51 40 22 16 54 43 70 60 17 17 71
64 120 105 50 41 104 88 120 105 17 17 59 53 94 80 35 28 87 74 117 103 30 28
58 52 62 52 4 0 64 49 132 109 69 60 127 107 129 105 5 -4 -38 -45 -125 -119
-84 -72 -95 -85 -89 -95 4 -6 -6 -15 -20 -20 -29 -11 -109 -71 -138 -104 -17
-18 -72 -67 -303 -266 -47 -41 -119 -104 -158 -140 -39 -36 -93 -84 -121 -105
-69 -55 -145 -126 -145 -136 0 -5 388 -9 868 -9 l868 0 45 63 c25 34 62 87 83
117 20 30 68 100 107 155 39 55 93 134 121 175 27 41 61 88 75 105 33 41 93
133 93 143 0 4 8 15 19 23 10 9 35 41 55 72 49 74 79 97 42 32 -16 -27 -35
-57 -42 -66 -8 -8 -14 -22 -14 -29 0 -8 -12 -26 -26 -41 -15 -16 -59 -75 -98
-132 -39 -57 -91 -132 -116 -168 -25 -35 -54 -78 -65 -95 -29 -44 -126 -187
-184 -269 -28 -38 -50 -73 -50 -77 -1 -5 394 -8 877 -8 l878 0 17 90 c17 84
26 121 66 249 17 55 41 80 41 43 0 -28 -47 -248 -65 -306 -8 -27 -15 -55 -15
-63 0 -11 152 -13 885 -13 l886 0 -21 27 c-29 41 -85 266 -155 623 -15 74 -33
155 -41 180 -42 132 -68 289 -45 264 40 -42 90 -201 142 -449 51 -245 79 -367
99 -426 12 -35 24 -99 27 -141 l6 -78 878 0 c489 0 879 4 879 9 0 4 -29 51
-65 102 -85 124 -250 366 -308 454 -85 128 -122 176 -144 191 -13 8 -23 19
-23 24 0 13 -84 148 -131 212 -18 25 -56 77 -84 115 -70 96 -137 173 -145 168
-4 -3 -5 -17 -2 -31 4 -23 2 -26 -12 -21 -10 4 -27 1 -37 -7 -11 -8 -29 -12
-40 -9 -10 3 -19 0 -19 -6 0 -6 -9 -11 -20 -11 -13 0 -20 -7 -20 -18 0 -19
-22 -52 -52 -80 -10 -9 -18 -21 -18 -27 -1 -12 -50 -50 -50 -37 0 4 5 13 12
20 9 9 9 12 0 12 -21 0 -13 26 23 80 36 53 44 80 24 80 -6 0 -8 7 -5 16 3 9 4
20 1 25 -7 10 -55 -10 -55 -24 0 -13 -40 -47 -55 -47 -7 0 -20 -9 -29 -19 -10
-11 -30 -21 -45 -23 -18 -2 -25 -8 -23 -21 2 -9 -2 -17 -9 -17 -8 0 -10 17 -6
57 4 34 0 97 -9 152 -8 52 -12 107 -9 122 4 17 2 29 -4 29 -17 0 -24 -66 -12
-117 30 -137 26 -164 -64 -363 -23 -52 -46 -111 -50 -130 -4 -19 -19 -57 -33
-85 -14 -27 -38 -75 -53 -106 -15 -31 -34 -63 -41 -71 -17 -18 -34 -45 -55
-86 -14 -26 -15 -39 -6 -61 14 -39 -1 -64 -23 -36 -14 19 -16 19 -28 3 -20
-27 -26 -11 -26 70 0 103 34 243 76 315 19 32 34 62 34 65 0 4 12 25 26 45 19
29 30 67 44 153 11 68 29 137 45 171 20 44 29 84 35 163 6 66 21 144 40 210
18 58 49 177 70 265 20 88 49 203 63 255 32 123 75 364 81 460 2 41 15 145 29
230 31 193 43 323 57 615 6 127 17 309 25 405 8 96 14 211 15 255 0 44 7 123
15 175 8 52 19 203 25 335 5 132 14 283 20 335 5 52 15 140 21 195 6 55 14
141 20 190 32 316 39 379 54 455 9 47 25 116 36 153 11 38 18 74 15 82 -7 18
-112 47 -145 40 -19 -4 -35 0 -53 15 -14 11 -35 20 -46 20 -25 0 -134 110
-203 206 -28 38 -65 85 -83 104 -18 19 -48 62 -67 95 -33 59 -34 62 -40 215
-6 163 -18 212 -69 278 -33 41 -110 166 -110 177 0 6 -6 22 -14 37 -8 15 -12
35 -10 45 3 10 -3 26 -13 35 -10 9 -30 27 -44 40 -14 13 -28 31 -31 39 -3 8
-9 10 -14 6 -12 -12 13 -140 42 -208 21 -52 26 -81 29 -186 l5 -125 -47 -41
c-125 -111 -126 -112 -119 -135 10 -29 22 -28 30 4 11 43 29 21 43 -51 7 -38
20 -87 29 -110 27 -68 199 -350 228 -374 16 -13 42 -108 32 -118 -12 -12 -61
33 -86 80 -14 25 -42 69 -63 99 -21 29 -49 69 -62 88 -14 19 -31 49 -39 65 -8
17 -23 38 -34 48 -12 11 -27 49 -37 92 -10 43 -26 82 -37 92 -19 17 -19 17
-13 -10 10 -37 -10 -35 -30 4 -10 19 -14 41 -10 60 8 35 6 35 -47 8 -38 -19
-54 -21 -192 -17 -130 4 -168 9 -276 37 -69 19 -138 40 -155 49 -58 29 -201
126 -250 169 -96 85 -106 95 -126 135 -26 50 -20 73 7 27 21 -34 45 -46 139
-71 22 -6 49 -15 60 -21 11 -6 49 -12 85 -12 82 -2 142 22 193 76 21 23 40 39
43 37 6 -7 -17 -71 -32 -89 -8 -8 -14 -21 -14 -27 0 -7 -7 -12 -15 -12 -46 0
34 -46 97 -57 51 -8 59 9 56 113 -3 79 -5 90 -25 99 -16 8 -19 15 -12 26 13
21 11 29 -6 23 -9 -4 -17 1 -21 12 -15 50 -24 53 -93 38 l-25 -5 29 -23 29
-23 -26 -17 c-21 -14 -44 -16 -136 -12 -66 3 -114 1 -117 -4 -10 -16 -68 -12
-94 6 -14 10 -33 14 -52 10 -62 -12 -95 24 -130 141 -42 140 -47 145 -98 88
-32 -37 -37 -50 -22 -59 4 -3 0 -30 -10 -60 -11 -30 -23 -86 -29 -124 -5 -37
-17 -85 -25 -106 -13 -31 -15 -60 -10 -154 6 -110 5 -120 -17 -159 -41 -75
-245 -245 -328 -273 -58 -20 -110 -51 -104 -62 3 -5 18 -1 34 9 16 9 32 14 35
11 3 -3 9 -39 14 -79 10 -83 42 -201 49 -180 2 8 -3 56 -13 107 -16 87 -14
179 4 158 12 -14 33 -112 61 -289 5 -27 13 -68 18 -90 6 -22 13 -80 16 -130
11 -160 60 -481 96 -615 5 -19 17 -75 26 -123 10 -48 22 -90 27 -94 12 -7 26
16 21 36 -2 9 5 -2 16 -24 11 -22 20 -48 20 -57 0 -9 5 -20 10 -23 15 -10 12
41 -10 140 -40 179 -42 204 -19 233 11 14 19 37 17 52 -1 14 1 31 6 38 10 16
-11 146 -30 189 -8 17 -15 59 -17 92 -1 33 -6 63 -10 67 -13 13 -7 52 9 58 13
5 14 9 4 21 -14 17 -4 34 35 67 l20 17 -25 24 c-14 13 -37 27 -52 30 -19 5
-31 20 -47 59 -29 70 -35 81 -51 86 -13 5 -13 0 5 -68 4 -16 0 -13 -11 10 -12
25 -18 66 -20 145 -2 85 -1 100 6 67 5 -23 7 -57 5 -74 -4 -36 15 -64 52 -79
14 -5 20 -14 17 -23 -8 -21 33 -103 55 -109 10 -2 25 -1 32 4 11 7 9 12 -8 24
-29 20 -29 35 -2 35 14 0 19 5 16 14 -6 14 -13 41 -41 152 -21 78 -21 124 -1
124 18 0 18 1 4 37 -7 15 -14 56 -16 89 -4 61 -3 62 34 93 21 17 40 31 43 31
6 0 34 -186 51 -335 12 -112 27 -349 39 -625 6 -129 17 -343 25 -475 8 -132
17 -454 20 -715 5 -350 11 -526 25 -670 10 -107 24 -265 31 -350 10 -119 18
-167 35 -205 43 -99 74 -251 82 -412 7 -130 11 -157 28 -180 11 -16 40 -84 63
-153 54 -156 62 -242 32 -345 -11 -38 -28 -98 -37 -132 -18 -62 -18 -62 5
-110 25 -52 82 -216 105 -307 14 -52 14 -62 -2 -104 -11 -33 -16 -78 -16 -152
0 -97 3 -114 42 -227 66 -192 78 -312 41 -386 -28 -54 -101 -146 -116 -146 -9
-1 -13 13 -13 39 0 23 -7 51 -15 64 -25 38 -11 54 40 48 l43 -4 13 41 c14 46
3 135 -29 236 -11 33 -27 96 -37 140 -20 95 -53 203 -90 300 -15 39 -33 86
-40 106 -18 48 -35 273 -24 335 10 67 35 170 44 184 4 6 1 17 -5 25 -8 10 -13
80 -15 211 -4 179 -6 203 -30 274 -14 42 -40 99 -57 126 -48 76 -88 182 -98
260 -10 78 -33 154 -59 193 -36 56 -55 68 -113 74 -56 5 -59 4 -82 -26 -24
-31 -25 -31 -45 -13 -21 19 -21 19 -21 -2 0 -17 -7 -21 -56 -24 -46 -2 -58 0
-66 15 -8 16 -6 18 14 15 14 -2 22 2 21 10 -2 6 -4 18 -5 25 -2 7 6 11 20 10
12 -2 22 2 22 7 0 6 -16 10 -35 10 -29 0 -37 -5 -46 -27 -6 -17 -13 -23 -20
-16 -6 6 -4 22 6 46 8 19 13 48 10 64 -8 44 13 60 94 72 83 11 111 2 111 -36
0 -29 -23 -30 -42 -1 -15 22 -38 18 -38 -7 0 -8 7 -11 20 -8 25 7 28 -22 4
-35 -9 -5 -14 -18 -12 -28 3 -16 13 -19 58 -22 62 -3 92 10 72 30 -6 6 -12 24
-12 39 0 16 -11 40 -25 55 -14 15 -25 31 -25 35 0 5 -21 31 -46 60 -25 28 -53
66 -61 85 -9 19 -25 37 -36 40 -10 3 -24 18 -30 33 -16 37 -79 114 -149 181
-32 31 -58 60 -58 66 0 6 -10 21 -22 34 -25 27 -51 128 -73 285 -8 62 -22 137
-30 169 -8 31 -19 98 -25 149 -6 50 -17 130 -25 177 -9 47 -18 133 -22 191
l-6 107 31 7 c17 3 36 4 42 0 17 -10 11 -44 -10 -62 -24 -21 -26 -39 -4 -47
11 -4 13 -10 7 -19 -21 -25 -22 -63 -5 -94 9 -17 29 -54 45 -82 25 -47 47 -66
47 -41 0 6 7 10 15 10 22 0 18 -28 -6 -35 -19 -6 -20 -8 -3 -33 10 -15 28 -38
41 -52 13 -14 23 -28 23 -32 0 -5 4 -8 9 -8 13 0 2 138 -16 193 -11 34 -23 52
-44 62 -16 9 -29 20 -29 25 0 9 62 23 152 36 58 8 65 -3 79 -120 10 -78 9 -86
-11 -117 -18 -28 -21 -30 -15 -9 16 57 17 80 5 80 -9 0 -11 13 -8 45 7 57 -6
57 -31 0 -18 -41 -19 -54 -10 -137 6 -51 15 -100 20 -109 5 -10 9 -29 9 -42 0
-36 48 -117 70 -117 10 0 21 7 24 16 10 26 6 214 -5 284 -25 151 -27 193 -8
231 10 20 30 45 44 56 34 24 25 50 -21 59 -32 6 -33 8 -40 65 -4 39 -11 59
-20 59 -7 0 -21 15 -30 33 -24 47 -65 87 -90 87 -12 0 -27 7 -34 15 -10 12
-10 15 4 15 9 0 16 6 16 13 0 19 -95 163 -143 215 -104 113 -111 137 -39 126
72 -10 82 -18 75 -59 -4 -27 -2 -36 12 -41 21 -8 35 11 35 49 0 26 3 28 28 23
50 -10 127 -10 127 -1 -1 21 -55 236 -69 272 -9 21 -22 92 -30 158 -9 66 -25
151 -36 190 -11 38 -20 91 -20 116 0 32 -5 49 -15 53 -11 4 -15 22 -15 71 0
78 -22 139 -139 385 -27 58 -61 122 -75 143 -14 21 -26 42 -26 47 0 5 24 18
53 29 200 77 412 175 447 207 9 7 38 23 65 35 43 19 199 130 230 163 29 31 79
66 95 66 11 0 22 -12 29 -31 12 -36 24 -31 51 21 32 64 55 76 138 72 77 -4 93
-16 40 -30 -18 -4 -33 -14 -33 -21 0 -6 -6 -16 -14 -20 -17 -11 -9 -15 59 -35
38 -11 72 -14 111 -10 57 6 96 -7 124 -44 12 -15 75 -31 126 -32 25 0 42 7 60
26 l24 25 -22 38 c-24 42 -22 51 13 51 37 0 36 16 -4 49 -29 24 -34 32 -23 40
12 8 12 16 -2 53 -10 25 -26 54 -38 66 l-20 22 58 0 c86 0 175 17 194 37 10
10 26 48 35 85 16 59 17 78 7 147 -15 98 -69 230 -100 242 -11 4 -49 11 -82
15 -34 4 -64 11 -67 16 -10 16 15 35 61 47 25 6 45 15 45 19 0 5 -24 17 -52
27 -83 30 -318 28 -410 -4 -38 -12 -68 -26 -68 -31 0 -13 66 -22 204 -29 86
-4 131 -10 133 -18 3 -8 -26 -13 -104 -16 -59 -2 -120 -8 -136 -12 -22 -6 -26
-5 -21 8 4 12 -7 16 -63 22 -131 12 -308 35 -341 44 -17 5 -68 13 -112 17 -44
3 -80 11 -80 15 0 12 163 11 194 -1 43 -16 156 -24 156 -12 0 7 -12 15 -27 18
-16 4 -44 15 -63 25 -19 9 -61 29 -92 42 -63 28 -60 21 -72 177 -6 67 15 256
31 284 16 28 76 66 106 66 48 0 264 -48 311 -70 25 -11 50 -20 56 -20 25 0 61
-48 74 -99 13 -50 13 -54 -5 -58 -16 -5 -16 -7 -4 -20 8 -8 15 -21 15 -29 0
-11 6 -13 23 -8 12 4 33 7 47 8 16 1 29 9 35 23 7 16 15 21 27 17 10 -3 18 -1
18 4 0 13 43 31 140 59 127 37 176 40 206 12 13 -12 24 -28 24 -35 0 -6 16
-26 35 -43 44 -38 76 -40 171 -7 96 32 126 49 171 95 21 21 65 53 98 71 33 18
67 40 76 51 16 18 17 18 24 -8 4 -17 2 -29 -4 -31 -7 -2 -11 -49 -11 -130 l0
-127 -55 -45 c-30 -25 -63 -60 -72 -78 -18 -33 -18 -34 5 -53 18 -14 28 -16
43 -9 22 12 23 11 7 -27 -6 -15 -10 -53 -9 -83 2 -45 -2 -60 -17 -74 -15 -12
-22 -14 -27 -6 -6 9 -10 9 -16 -1 -13 -21 -11 -32 4 -26 9 3 20 -9 31 -34 21
-48 52 -53 62 -11 14 65 30 106 46 116 50 31 38 -69 -17 -144 -19 -25 -36 -59
-39 -75 -3 -15 -20 -46 -38 -68 -43 -54 -58 -117 -65 -269 -7 -160 -3 -172 90
-235 39 -26 90 -64 113 -83 23 -19 65 -51 93 -70 28 -19 84 -59 123 -87 40
-29 76 -53 80 -53 5 0 8 -5 8 -11 0 -7 15 -31 34 -54 19 -23 48 -68 64 -101
77 -153 98 -190 115 -203 13 -9 17 -20 12 -39 -3 -14 -2 -28 3 -31 6 -3 13
-35 16 -71 7 -73 10 -92 25 -169 6 -29 11 -73 11 -97 0 -39 3 -44 23 -44 18 0
22 -5 22 -32 0 -22 5 -34 16 -36 24 -5 28 25 23 171 -5 168 -12 225 -29 256
-8 15 -26 53 -40 86 -14 33 -46 92 -71 131 -41 67 -52 94 -38 94 3 0 14 -10
25 -22 18 -23 18 -23 19 -2 0 26 -76 106 -118 123 -18 7 -32 17 -32 22 0 13 6
12 58 -15 56 -29 99 -72 158 -158 50 -73 168 -308 178 -355 4 -18 11 -33 16
-33 9 0 -11 92 -34 159 -9 24 -16 45 -16 47 0 12 57 -11 71 -29 9 -11 18 -15
20 -10 2 6 14 13 26 17 18 6 26 1 41 -23 10 -17 22 -28 25 -24 4 3 7 -3 7 -15
0 -15 -6 -22 -20 -22 -12 0 -21 -8 -25 -22 -14 -64 -35 -349 -33 -435 2 -54
-1 -115 -6 -135 -8 -36 -6 -38 27 -58 19 -11 37 -30 40 -40 12 -48 -31 -179
-101 -305 -14 -24 -17 -55 -16 -150 1 -93 9 -324 14 -400 1 -5 7 1 14 15 8 14
19 75 25 135 6 61 15 133 20 160 6 28 10 77 10 110 1 65 31 247 55 335 9 30
16 73 16 95 0 22 5 58 10 80 5 22 19 95 30 162 11 67 26 139 34 160 8 21 20
71 26 111 10 61 14 71 26 61 15 -13 13 -72 -7 -169 -20 -99 -49 -254 -49 -264
0 -25 51 97 65 156 25 104 46 159 91 233 23 38 67 113 97 165 29 52 102 178
161 280 152 260 341 586 570 984 54 93 105 180 113 193 14 21 14 26 2 34 -8 5
-446 9 -1054 9 -969 0 -1040 1 -1037 16 5 26 62 123 77 132 18 10 2271 -1
2281 -11 5 -4 2 -18 -6 -30 -20 -32 -219 -375 -245 -422 -12 -22 -55 -96 -95
-165 -74 -127 -199 -345 -275 -480 -23 -41 -66 -115 -95 -165 -88 -151 -200
-346 -247 -430 -25 -44 -77 -134 -116 -199 l-71 -119 -2 -286 c-2 -158 -7
-305 -12 -327 -5 -21 -20 -75 -32 -119 -27 -96 -39 -143 -85 -345 -44 -194
-56 -228 -116 -348 l-48 -97 -1 61 c0 41 9 86 26 135 14 41 32 105 40 143 8
38 19 75 25 82 12 15 40 108 84 280 33 130 33 135 32 345 0 119 4 241 11 274
17 92 26 315 13 315 -6 0 -14 -12 -17 -27 -18 -76 -61 -188 -106 -278 -66
-132 -103 -263 -128 -459 -11 -89 -25 -191 -30 -229 -6 -37 -10 -86 -10 -110
0 -23 -7 -83 -15 -133 -8 -50 -19 -135 -25 -190 -6 -54 -19 -130 -30 -169 -16
-62 -42 -232 -72 -480 -5 -44 -11 -159 -13 -255 -9 -369 -47 -739 -85 -809 -4
-8 -1 -30 7 -50 23 -55 14 -153 -17 -187 -23 -24 -25 -32 -24 -128 1 -66 9
-131 22 -182 11 -43 23 -110 27 -148 4 -38 13 -90 21 -115 8 -25 14 -60 14
-77 0 -19 9 -39 25 -54 24 -22 24 -24 6 -39 -25 -22 -14 -48 39 -91 102 -83
154 -138 176 -185 46 -97 20 -117 -36 -28 -19 30 -51 67 -70 81 -19 14 -55 44
-79 66 -48 45 -44 27 11 -48 21 -30 25 -42 17 -52 -16 -20 5 -98 42 -154 23
-35 29 -54 27 -85 -2 -31 -7 -40 -22 -40 -14 0 -22 14 -36 65 -10 36 -32 117
-49 180 -18 63 -37 144 -42 180 -14 89 -13 88 -52 240 -19 74 -42 194 -52 265
-23 178 -35 216 -31 95 4 -94 28 -344 42 -430 4 -25 15 -61 24 -80 10 -19 21
-51 25 -70 13 -68 84 -297 124 -400 30 -77 32 -109 15 -234 -21 -159 -19 -187
18 -264 48 -102 176 -299 302 -467 42 -55 82 -115 91 -134 8 -19 30 -53 48
-75 18 -23 68 -93 110 -156 70 -104 215 -313 298 -430 17 -25 34 -51 38 -58 6
-10 188 -12 881 -10 l873 3 -49 48 c-58 56 -212 191 -339 297 -50 41 -99 84
-110 97 -11 12 -46 44 -77 70 -32 26 -105 90 -163 141 -59 51 -118 97 -131
102 -13 5 -24 16 -24 23 0 8 -9 22 -20 32 -11 10 -18 20 -16 22 7 7 96 -63
176 -138 41 -38 87 -77 101 -87 14 -9 59 -47 100 -84 41 -36 93 -81 116 -100
23 -18 77 -64 120 -103 44 -38 93 -81 109 -94 16 -14 63 -54 104 -90 41 -36
86 -74 99 -86 13 -11 31 -28 40 -37 14 -17 49 -18 458 -18 l443 0 0 273 0 274
-27 13 c-16 8 -50 30 -78 50 -55 40 -117 76 -213 126 -34 18 -70 40 -79 49 -9
9 -26 23 -39 32 -44 29 -24 35 24 7 26 -15 67 -38 92 -51 24 -13 53 -31 65
-41 35 -31 236 -152 251 -152 2 0 4 2299 4 5110 l0 5110 -5400 0 -5400 0 0
-5110z m210 5034 c0 -8 -4 -12 -10 -9 -5 3 -10 10 -10 16 0 5 5 9 10 9 6 0 10
-7 10 -16z m3910 -69 c0 -8 -9 -15 -20 -15 -11 0 -20 7 -20 15 0 8 9 15 20 15
11 0 20 -7 20 -15z m-4040 -289 c0 -8 -4 -17 -9 -21 -12 -7 -24 12 -16 25 9
15 25 12 25 -4z m2295 -96 c3 -5 1 -10 -4 -10 -6 0 -11 5 -11 10 0 6 2 10 4
10 3 0 8 -4 11 -10z m5745 -5 c0 -8 -4 -15 -9 -15 -13 0 -22 16 -14 24 11 11
23 6 23 -9z m-2654 -423 c-17 -16 -18 -16 -5 5 7 12 15 20 18 17 3 -2 -3 -12
-13 -22z m865 -219 c15 -15 36 -35 46 -43 12 -9 24 -37 30 -68 12 -63 1 -65
-33 -4 -28 50 -31 70 -7 51 15 -13 15 -12 3 7 -7 12 -20 21 -29 20 -9 -1 -17
8 -19 22 -2 12 -9 22 -15 21 -33 -4 -49 2 -43 16 3 9 0 15 -8 15 -7 0 -18 11
-24 24 l-11 25 42 -29 c23 -15 54 -41 68 -57z m614 18 c3 -5 1 -12 -5 -16 -5
-3 -10 1 -10 9 0 18 6 21 15 7z m975 -45 c0 -3 -4 -8 -10 -11 -5 -3 -10 -1
-10 4 0 6 5 11 10 11 6 0 10 -2 10 -4z m-6540 -210 c0 -32 -18 -43 -37 -23
-20 20 -10 47 17 47 15 0 20 -7 20 -24z m8010 -6 c0 -5 -2 -10 -4 -10 -3 0 -8
5 -11 10 -3 6 -1 10 4 10 6 0 11 -4 11 -10z m-4567 -65 c-3 -9 -8 -14 -10 -11
-3 3 -2 9 2 15 9 16 15 13 8 -4z m-4353 -25 c0 -5 -4 -10 -10 -10 -5 0 -10 5
-10 10 0 6 5 10 10 10 6 0 10 -4 10 -10z m5940 -30 c0 -5 -4 -10 -10 -10 -5 0
-10 5 -10 10 0 6 5 10 10 10 6 0 10 -4 10 -10z m-8 -52 c-9 -9 -15 -9 -24 0
-10 10 -10 15 2 22 9 6 19 5 24 0 7 -7 6 -14 -2 -22z m-3362 12 c0 -5 -7 -10
-15 -10 -8 0 -15 5 -15 10 0 6 7 10 15 10 8 0 15 -4 15 -10z m3322 -77 c3 -16
9 -36 13 -47 7 -16 5 -17 -12 -7 -15 8 -21 21 -21 46 0 42 14 47 20 8z m45
-510 c-21 -22 -32 -11 -17 17 9 16 15 19 23 11 8 -8 7 -16 -6 -28z m105 -40
c26 -23 23 -30 -16 -37 -57 -11 -91 19 -48 43 25 15 43 13 64 -6z m-141 -101
c-12 -23 -40 -47 -46 -40 -3 3 4 17 16 31 24 31 45 37 30 9z m99 -8 c13 -33
13 -91 0 -99 -13 -8 -40 55 -40 95 0 38 26 41 40 4z m-1950 -149 c0 -8 15 -21
33 -29 36 -15 88 -73 130 -147 29 -52 52 -75 61 -61 10 17 -17 123 -40 158
l-23 34 27 0 c38 0 102 -19 102 -30 0 -6 -4 -10 -9 -10 -13 0 -34 -57 -27 -75
3 -8 15 -15 26 -15 36 0 89 -48 100 -92 6 -21 18 -42 26 -45 32 -12 4 -106
-44 -144 -29 -22 -45 -21 -152 12 -105 33 -174 120 -187 232 -3 30 -12 57 -21
65 -24 19 -2241 18 -2248 -1 -4 -12 45 -101 261 -472 32 -55 67 -116 77 -135
11 -19 44 -75 73 -125 29 -49 102 -175 163 -280 60 -104 148 -255 194 -335 47
-80 111 -190 142 -245 32 -55 80 -138 107 -183 27 -46 49 -93 49 -103 0 -23
-68 -159 -79 -159 -5 0 -28 37 -53 83 -44 81 -404 709 -468 817 -18 30 -61
105 -95 165 -34 61 -104 182 -155 270 -51 88 -122 212 -158 275 -36 63 -102
178 -147 255 -140 241 -175 304 -175 320 0 13 138 15 1255 15 1104 0 1255 -2
1255 -15z m619 -129 c5 -4 13 -28 16 -54 13 -96 82 -259 130 -303 31 -29 55
-71 55 -96 -1 -10 -9 -29 -20 -41 -17 -20 -25 -23 -59 -17 -53 9 -107 -3 -141
-31 -24 -21 -29 -22 -40 -9 -16 19 -30 19 -30 0 0 -8 8 -15 17 -15 14 0 14 -3
5 -12 -8 -8 -15 -9 -20 -3 -23 32 -39 35 -66 14 -30 -24 -118 -70 -123 -65 -9
8 -92 260 -88 264 8 8 98 -19 125 -38 27 -19 28 -19 45 0 17 19 31 60 62 184
8 33 30 86 49 119 19 32 32 63 29 68 -4 5 -22 9 -41 9 -33 0 -45 16 -26 34 8
9 105 2 121 -8z m524 -52 c5 -5 -27 -44 -37 -44 -2 0 -3 11 -2 25 1 23 23 34
39 19z m-369 -87 c8 -18 22 -63 31 -102 9 -38 23 -81 32 -93 20 -32 8 -40 -25
-16 -40 30 -84 101 -111 182 -21 59 -23 73 -12 86 12 14 16 14 42 -5 16 -11
35 -34 43 -52z m440 21 c21 -51 29 -185 14 -243 -16 -61 -35 -72 -119 -65 -54
4 -64 8 -67 25 -2 11 -15 30 -28 43 -13 13 -21 29 -18 35 5 9 3 8 -6 0 -11
-10 -17 -9 -32 4 -10 9 -18 20 -18 25 0 22 115 -7 132 -34 5 -9 12 -8 25 4 10
8 25 17 33 20 10 3 13 18 11 55 -1 29 4 66 13 88 9 20 13 42 10 47 -6 10 12
28 29 28 4 0 14 -15 21 -32z m-412 -437 c19 -7 26 -15 22 -26 -8 -21 -43 -19
-82 5 -59 36 -17 51 60 21z m-1407 -721 c-3 -5 -12 -10 -18 -10 -7 0 -6 4 3
10 19 12 23 12 15 0z m2446 -80 c-7 -38 -9 -40 -10 -14 -1 41 12 107 16 79 2
-11 -1 -40 -6 -65z m2627 9 c3 -17 -23 -33 -39 -23 -5 3 -9 14 -9 25 0 15 6
20 22 17 13 -2 24 -10 26 -19z m-1633 -109 c3 -6 -1 -7 -9 -4 -18 7 -21 14 -7
14 6 0 13 -4 16 -10z m-1094 -22 c18 -23 26 -88 12 -102 -4 -4 -13 12 -20 36
-6 24 -15 53 -18 66 -4 12 -4 22 0 22 4 0 15 -10 26 -22z m-2681 -198 c0 -5
-5 -10 -11 -10 -5 0 -7 5 -4 10 3 6 8 10 11 10 2 0 4 -4 4 -10z m1680 -30 c0
-5 5 -10 11 -10 6 0 25 -10 41 -22 24 -16 43 -21 84 -19 29 1 77 -5 105 -14
89 -26 139 -16 103 20 -23 22 -11 30 43 27 33 -1 54 -9 72 -26 45 -41 154 -83
331 -126 95 -22 111 -29 132 -55 11 -12 17 -15 18 -7 0 7 4 11 10 7 5 -3 7
-12 4 -20 -4 -8 0 -17 9 -20 8 -4 20 -24 27 -46 7 -21 17 -39 21 -39 6 0 22
-23 64 -90 6 -9 24 -34 42 -56 l32 -41 -3 -124 c-5 -228 -33 -585 -49 -621
-24 -52 -26 -86 -11 -177 19 -118 19 -134 -5 -126 -15 4 -130 67 -211 115 -47
28 -154 70 -166 66 -11 -4 -11 -14 2 -53 9 -26 23 -74 33 -105 9 -31 20 -60
24 -64 4 -4 7 -13 7 -21 0 -7 16 -48 36 -90 38 -82 129 -312 147 -375 22 -75
-7 -57 -120 76 -18 20 -49 67 -69 104 -148 270 -153 282 -169 437 -3 28 -10
70 -15 95 -10 50 -118 268 -150 302 -11 12 -20 26 -20 31 0 14 -101 216 -111
223 -5 3 -9 12 -9 20 0 14 -132 286 -150 309 -4 6 -22 50 -40 100 -18 49 -46
117 -61 150 -16 33 -29 69 -29 81 0 11 -4 24 -8 30 -14 15 -32 117 -26 142 6
22 24 31 24 12z m-1181 -131 c7 -23 29 -66 49 -96 35 -53 36 -57 35 -146 0
-64 -7 -114 -21 -162 -12 -39 -24 -83 -27 -98 -3 -15 -10 -25 -15 -22 -4 3
-11 -21 -15 -52 -12 -110 -15 -77 -10 127 5 202 2 244 -34 419 -5 25 -7 51 -4
58 10 26 30 12 42 -28z m-587 -109 c-4 -64 -8 -87 -13 -70 -9 32 -11 137 -2
169 12 46 19 -3 15 -99z m1138 90 c0 -5 -2 -10 -4 -10 -3 0 -8 5 -11 10 -3 6
-1 10 4 10 6 0 11 -4 11 -10z m1540 -20 c0 -5 -2 -10 -4 -10 -3 0 -8 5 -11 10
-3 6 -1 10 4 10 6 0 11 -4 11 -10z m467 -22 c11 -13 30 -43 42 -68 13 -25 36
-71 52 -103 16 -32 29 -74 29 -95 0 -59 27 -169 54 -220 30 -58 40 -131 21
-152 -7 -8 -22 -32 -34 -53 -28 -51 -29 -183 -1 -288 23 -91 28 -200 16 -424
-7 -142 -14 -192 -43 -305 -46 -182 -52 -259 -25 -336 11 -32 28 -98 38 -145
17 -82 17 -90 -1 -195 -10 -60 -22 -140 -26 -179 -5 -38 -13 -90 -17 -115 -7
-41 -9 -43 -16 -21 -5 14 -10 79 -11 145 -7 249 -16 433 -25 481 -5 28 -12 77
-16 110 -3 33 -12 69 -19 80 -9 14 -15 81 -18 205 -3 102 -13 226 -21 275 -9
50 -18 144 -20 210 -4 119 -19 224 -37 257 -12 23 -12 121 0 114 15 -9 17 23
10 164 -3 74 -2 156 3 181 5 26 8 105 6 177 -2 100 0 128 10 125 15 -6 15 6 0
78 -9 45 -9 63 1 88 16 37 21 38 48 9z m1122 -157 c6 -11 11 -26 10 -33 -1
-31 -51 101 -55 147 -4 48 -4 47 15 -22 11 -40 25 -81 30 -92z m-4043 -19 c8
-18 14 -42 14 -53 0 -11 9 -45 20 -77 18 -50 40 -207 54 -387 8 -104 25 -247
36 -304 6 -31 6 -57 1 -60 -5 -3 -11 -15 -13 -26 -7 -33 -27 132 -29 234 -1
52 -8 118 -15 145 -23 87 -93 491 -99 576 -3 32 -2 33 7 10 6 -14 16 -40 24
-58z m957 44 c6 -16 -2 -28 -14 -20 -12 7 -11 34 0 34 5 0 11 -6 14 -14z m46
-82 c3 -16 1 -17 -13 -5 -19 16 -21 34 -3 29 6 -3 14 -13 16 -24z m3114 -174
c3 -33 2 -58 -2 -55 -12 7 -39 104 -46 165 l-6 55 25 -52 c14 -30 27 -77 29
-113z m-3183 72 c0 -17 -17 -7 -31 19 -9 18 -9 19 10 7 12 -7 21 -19 21 -26z
m2498 -14 c-7 -20 -48 -23 -48 -4 0 11 9 16 26 16 16 0 24 -5 22 -12z m-2443
-18 c-4 -12 -1 -28 6 -36 10 -12 9 -13 -4 -9 -16 7 -30 43 -21 57 11 17 25 7
19 -12z m-73 -62 c-3 -22 0 -43 5 -47 12 -7 36 -101 28 -109 -3 -3 -12 1 -20
9 -9 9 -16 47 -20 114 -4 66 -3 95 3 86 5 -7 7 -31 4 -53z m684 -20 c4 -13 17
-36 29 -53 33 -45 65 -129 65 -170 0 -22 -4 -34 -10 -30 -5 3 -10 17 -10 31 0
18 -5 24 -17 22 -11 -2 -18 3 -18 12 0 8 -3 20 -8 25 -24 32 -69 136 -73 168
-5 35 -4 37 15 28 11 -6 23 -21 27 -33z m-362 -218 c3 -25 8 -70 11 -100 4
-30 13 -86 21 -125 9 -38 19 -97 24 -130 5 -33 25 -125 45 -205 42 -171 50
-213 41 -236 -6 -15 -11 -11 -31 19 -14 20 -25 40 -25 45 0 5 -9 38 -21 73
-27 85 -65 285 -73 384 -4 44 -12 130 -18 191 -11 112 -5 192 12 149 4 -12 10
-41 14 -65z m277 -5 c13 -22 40 -63 61 -91 21 -28 38 -56 38 -62 0 -6 11 -24
26 -41 14 -17 24 -36 23 -43 -4 -31 2 -49 13 -42 8 5 9 0 5 -15 -6 -26 17
-202 44 -326 11 -49 22 -100 25 -113 3 -13 19 -29 39 -39 32 -15 38 -25 62
-102 18 -59 36 -96 57 -117 36 -37 56 -61 56 -69 0 -3 8 -13 18 -23 9 -10 35
-38 58 -63 41 -45 74 -69 96 -69 19 0 102 -86 148 -152 68 -99 67 -96 26 -134
-20 -18 -36 -37 -36 -42 0 -13 47 -32 80 -32 83 0 79 -32 -7 -60 -107 -35
-114 -48 -58 -116 27 -33 37 -56 42 -95 6 -47 9 -52 42 -66 45 -19 43 -16 47
-52 3 -27 0 -32 -24 -36 -134 -28 -137 -31 -152 -85 -8 -29 -17 -41 -41 -49
-17 -6 -35 -8 -40 -5 -14 8 -10 56 6 84 22 39 18 75 -19 148 -49 98 -130 186
-224 246 -29 18 -86 61 -128 96 -92 75 -118 124 -134 255 -9 76 -16 98 -45
140 -51 75 -56 95 -65 285 -18 339 -17 331 -55 520 -8 41 -19 111 -26 155 -6
44 -15 91 -20 105 -12 33 -29 161 -23 171 9 15 63 -27 85 -66z m-594 -7 c-3
-7 -5 -2 -5 12 0 14 2 19 5 13 2 -7 2 -19 0 -25z m-571 -53 c-4 -19 -4 -56 0
-84 5 -40 11 -51 33 -61 l26 -13 -30 -10 c-41 -13 -41 -12 -11 -47 15 -19 26
-44 26 -62 0 -28 2 -29 33 -23 17 4 36 8 41 9 6 0 12 -7 14 -16 3 -15 -3 -18
-32 -18 -26 0 -40 -7 -56 -27 -19 -25 -22 -26 -37 -10 -12 12 -18 35 -18 74
-1 32 -5 101 -10 155 -8 100 -2 168 17 168 6 0 8 -13 4 -35z m592 -39 c3 -35
2 -37 -17 -26 -12 6 -21 18 -20 28 0 10 3 12 6 5 7 -18 23 -16 23 2 0 8 -4 15
-10 15 -5 0 -10 5 -10 11 0 6 6 9 13 7 6 -3 13 -21 15 -42z m-1 -118 c-3 -8
-6 -5 -6 6 -1 11 2 17 5 13 3 -3 4 -12 1 -19z m3318 -528 c20 -102 42 -248 50
-325 8 -77 20 -164 27 -192 12 -52 5 -82 -13 -52 -4 9 -22 22 -39 29 -27 11
-72 66 -127 158 -20 34 -22 49 -23 249 0 130 3 221 10 233 12 22 14 153 6 290
l-6 95 40 -150 c22 -82 56 -233 75 -335z m-3712 354 c10 -13 17 -29 15 -35 -5
-14 -48 28 -48 46 0 22 13 18 33 -11z m-173 -63 c0 -25 -14 -71 -21 -71 -10 0
-12 63 -2 73 9 10 23 9 23 -2z m610 -49 c0 -7 -4 -10 -10 -7 -5 3 -10 16 -10
28 0 18 2 19 10 7 5 -8 10 -21 10 -28z m-512 -23 c-25 -14 -22 -46 7 -81 37
-43 32 -66 -7 -31 -10 9 -18 23 -18 32 0 9 -9 22 -20 29 -37 23 -15 61 35 61
18 0 19 0 3 -10z m-80 -44 c17 -38 15 -55 -8 -55 -25 0 -34 21 -26 55 8 32 20
32 34 0z m312 -45 c0 -5 -5 -10 -11 -10 -5 0 -7 5 -4 10 3 6 8 10 11 10 2 0 4
-4 4 -10z m-190 -336 c0 -8 -4 -12 -10 -9 -5 3 -10 10 -10 16 0 5 5 9 10 9 6
0 10 -7 10 -16z m-186 -314 c6 -125 3 -145 -9 -60 -10 77 -19 80 -108 32 -13
-7 11 35 48 83 18 24 36 56 39 71 13 51 23 6 30 -126z m426 131 c0 -6 -4 -13
-10 -16 -5 -3 -10 1 -10 9 0 9 5 16 10 16 6 0 10 -4 10 -9z m-690 -470 c0 -5
-6 -14 -14 -20 -12 -10 -13 -8 -9 8 5 21 23 30 23 12z m4280 -100 c0 -24 -10
-34 -63 -64 -80 -47 -192 -78 -255 -70 l-55 6 98 48 c53 27 113 59 133 71 36
22 105 38 130 30 6 -2 12 -12 12 -21z m-4350 -31 c0 -5 -9 -14 -20 -20 -19
-10 -20 -10 -8 9 13 22 28 28 28 11z m576 -105 c8 -22 13 -51 12 -65 -3 -24
-1 -25 39 -22 49 4 83 -22 83 -65 0 -46 -14 -59 -46 -44 -38 17 -52 -1 -23
-28 18 -17 20 -24 10 -34 -18 -18 -46 23 -61 92 -7 31 -21 83 -31 115 -11 33
-19 68 -19 78 0 32 21 15 36 -27z m3764 -12 c-1 -65 -20 -205 -31 -224 -12
-24 -12 -24 -24 11 -9 27 -29 47 -91 87 -43 29 -88 59 -98 66 -33 23 -10 37
58 37 42 0 79 7 107 20 55 24 79 25 79 3z m-355 -189 c98 -12 135 -22 205 -54
47 -22 86 -44 88 -50 2 -5 -6 -26 -18 -46 -22 -35 -23 -35 -34 -13 -7 14 -27
28 -53 35 -23 7 -69 25 -103 40 -33 15 -63 24 -67 20 -10 -10 37 -51 99 -87
82 -48 126 -87 154 -134 24 -41 28 -44 77 -49 29 -3 194 -8 367 -11 555 -10
694 -17 705 -35 8 -14 -38 -20 -106 -14 -43 4 -73 2 -88 -5 -12 -7 -61 -15
-109 -17 -85 -5 -128 -20 -100 -34 7 -4 51 -13 98 -20 47 -7 89 -17 95 -22 10
-9 -32 -9 -158 0 -49 4 -91 4 -93 0 -7 -10 51 -38 79 -38 32 0 88 -19 107 -36
12 -12 11 -14 -12 -14 -15 0 -38 4 -52 10 -14 5 -84 12 -156 15 l-130 6 0 -29
0 -29 -47 9 c-27 5 -70 14 -98 19 -61 13 -167 8 -172 -7 -2 -6 22 -19 54 -28
32 -10 64 -20 72 -22 9 -3 11 -8 5 -14 -6 -6 -47 -5 -112 3 -56 8 -107 10
-114 5 -7 -5 -35 -8 -63 -7 -67 3 -98 -8 -92 -31 3 -11 -2 -21 -10 -25 -17 -6
-46 13 -38 25 3 5 -6 3 -20 -3 -14 -7 -25 -19 -25 -28 0 -10 -11 -37 -25 -60
-14 -24 -25 -51 -25 -60 0 -8 -11 -26 -25 -39 -14 -13 -25 -32 -25 -43 0 -10
-8 -31 -19 -45 -27 -39 -42 -99 -30 -129 15 -39 11 -45 -21 -38 -26 6 -30 4
-30 -14 0 -25 -18 -28 -26 -3 -3 9 -14 35 -24 57 -10 22 -20 62 -24 89 -7 56
-30 83 -75 92 -38 8 -121 -4 -121 -17 0 -6 25 -21 55 -35 61 -28 91 -62 135
-153 31 -64 37 -102 20 -145 -12 -32 -74 -60 -100 -46 -17 9 -102 111 -144
173 -12 17 -24 30 -28 29 -15 -3 -87 74 -93 100 -5 21 -3 27 14 33 29 9 27 55
-4 91 -14 16 -25 33 -25 38 0 6 -23 31 -52 58 -28 26 -49 51 -45 54 4 4 33 -2
64 -14 85 -30 154 -42 241 -42 52 0 84 -5 98 -15 41 -28 46 15 9 90 -33 68
-48 83 -135 134 -90 53 -147 104 -166 148 -33 77 -8 78 92 7 34 -24 99 -57
144 -74 46 -16 90 -36 99 -43 9 -8 39 -26 66 -42 28 -15 63 -43 79 -62 27 -32
29 -33 40 -15 6 11 19 31 29 45 38 53 -1 96 -177 196 -16 9 -56 38 -90 64 -33
27 -87 62 -118 78 -32 16 -58 32 -58 36 0 3 84 4 188 1 162 -4 194 -8 235 -26
55 -24 60 -35 15 -28 -71 11 -248 16 -248 6 0 -15 80 -65 140 -88 30 -11 98
-25 150 -31 52 -7 100 -17 107 -23 17 -14 21 -10 28 30 4 27 -1 39 -42 87 -27
30 -61 71 -77 91 -17 20 -47 47 -67 60 -58 36 -292 154 -307 154 -19 0 -73 40
-68 49 3 4 51 -1 108 -11 57 -10 157 -25 223 -34z m-3230 6 c7 -12 -12 -40
-26 -40 -10 0 -12 34 -2 43 9 10 21 9 28 -3z m49 -65 c15 -23 15 -25 -5 -36
-30 -16 -46 2 -31 36 14 31 16 31 36 0z m1104 -17 c10 -10 17 -10 33 1 17 10
27 10 50 0 16 -6 45 -9 63 -6 24 4 36 1 40 -8 7 -19 -3 -25 -35 -18 -17 3 -29
1 -29 -5 0 -5 -16 -13 -35 -16 -21 -4 -35 -13 -35 -21 0 -8 -4 -15 -9 -15 -17
0 -17 -54 0 -71 13 -13 25 -15 55 -9 61 13 116 31 156 51 57 29 120 49 153 48
17 -1 22 -3 13 -6 -10 -2 -18 -13 -18 -23 0 -23 -39 -49 -41 -28 -1 7 -5 -3
-8 -22 -9 -46 -4 -59 27 -67 14 -3 33 -13 43 -21 20 -18 26 -11 -67 -73 -59
-38 -142 -71 -165 -64 -10 4 -19 2 -19 -4 0 -5 -10 -11 -22 -13 -16 -2 -24
-11 -26 -28 -4 -34 44 -60 108 -60 54 0 59 -8 50 -75 -5 -38 -7 -40 -50 -48
-25 -4 -72 -5 -105 -1 -33 3 -73 7 -90 8 -16 1 -31 5 -32 9 -2 4 -10 22 -19
40 -19 35 -21 32 -26 -28 -3 -33 -8 -41 -27 -43 -36 -6 -42 9 -20 57 12 28 18
59 16 83 -2 21 1 46 8 55 11 14 13 11 19 -20 10 -55 52 -46 65 14 6 29 2 43
-26 88 -47 74 -59 146 -39 235 9 37 16 78 16 92 0 26 9 31 28 12z m-1258 -18
c0 -5 -2 -10 -4 -10 -3 0 -8 5 -11 10 -3 6 -1 10 4 10 6 0 11 -4 11 -10z m33
-127 c11 -18 19 -103 10 -103 -14 0 -33 46 -33 80 0 28 13 40 23 23z m277 -94
c0 -5 -7 -9 -15 -9 -15 0 -20 12 -9 23 8 8 24 -1 24 -14z m-1801 -39 c9 -4 24
-30 34 -57 10 -26 27 -66 37 -88 30 -64 29 -78 -7 -90 -18 -6 -35 -14 -39 -18
-8 -8 42 -28 71 -29 34 0 65 -8 65 -16 0 -9 -59 -32 -83 -32 -9 0 -17 7 -17
15 0 9 -10 15 -27 16 -86 4 -368 -1 -385 -7 -14 -4 -19 -2 -16 7 2 7 32 18 66
25 65 13 82 20 82 33 0 11 -8 11 -146 14 -103 2 -125 5 -143 21 -11 10 -18 23
-15 27 3 5 -9 9 -26 9 -24 0 -31 -4 -27 -14 5 -11 -10 -16 -67 -21 -41 -4 -82
-4 -92 -1 -11 3 -40 -1 -67 -9 -28 -8 -56 -11 -69 -6 -31 11 -7 23 58 27 29 1
61 7 71 12 10 5 41 21 69 35 33 17 68 27 95 27 24 0 62 5 83 11 58 16 25 31
-52 23 -35 -4 -76 -6 -90 -6 -15 0 -38 -8 -52 -18 -19 -13 -57 -20 -148 -27
-68 -4 -129 -5 -135 -1 -7 4 20 8 58 8 51 0 81 6 107 20 21 11 55 23 78 26 22
4 40 10 40 15 0 12 -42 16 -71 6 -25 -8 -77 -6 -219 7 -160 15 -225 19 -327
20 -61 1 -114 4 -118 8 -12 12 84 20 178 15 51 -2 130 -1 177 4 47 4 271 10
499 13 228 3 416 7 418 9 7 7 136 -4 152 -13z m1541 -20 c0 -11 -2 -20 -4 -20
-2 0 -6 9 -9 20 -3 11 -1 20 4 20 5 0 9 -9 9 -20z m4949 -5 c11 -11 -9 -13
-97 -8 -61 4 -89 9 -80 15 12 9 167 2 177 -7z m251 5 c11 -7 6 -10 -22 -10
-20 0 -40 5 -43 10 -8 13 45 13 65 0z m-4368 -161 c9 -5 24 -9 33 -9 32 0 165
-65 171 -83 8 -25 0 -30 -41 -30 -37 0 -102 25 -150 57 -16 12 -32 21 -35 22
-23 5 -70 27 -66 32 3 3 1 11 -5 18 -8 10 -1 11 33 7 24 -3 51 -10 60 -14z
m-3377 1 c3 -6 -4 -10 -17 -10 -13 -1 -48 -3 -78 -6 -37 -4 -52 -2 -45 4 17
18 131 27 140 12z m7200 -10 c8 -13 -45 -13 -65 0 -11 7 -6 10 22 10 20 0 40
-4 43 -10z m-6815 -78 c0 -13 -12 -22 -22 -16 -10 6 -1 24 13 24 5 0 9 -4 9
-8z m5460 -12 c0 -5 -2 -10 -4 -10 -3 0 -8 5 -11 10 -3 6 -1 10 4 10 6 0 11
-4 11 -10z m895 0 c15 -6 6 -9 -32 -9 -29 -1 -53 4 -53 9 0 12 57 12 85 0z
m-6472 -17 c-7 -2 -19 -2 -25 0 -7 3 -2 5 12 5 14 0 19 -2 13 -5z m1901 -518
c-70 -74 -129 -135 -132 -135 -2 0 1 7 8 15 15 18 -1 20 -18 3 -22 -22 -12 -1
18 38 87 113 199 214 238 214 8 0 -44 -61 -114 -135z m256 75 c-12 -16 -25
-30 -28 -30 -12 0 -165 -150 -204 -200 -20 -25 -55 -80 -78 -122 -35 -65 -40
-83 -34 -113 5 -29 4 -34 -9 -29 -34 13 -40 109 -12 165 58 113 268 326 344
349 42 13 43 12 21 -20z m20 -75 c0 -27 -42 -87 -120 -170 -51 -55 -110 -123
-131 -151 -36 -47 -39 -55 -39 -118 0 -77 -16 -86 -38 -20 -28 82 13 160 167
316 53 54 107 109 120 123 21 23 41 33 41 20z m3012 -227 c47 -62 78 -125 78
-156 0 -42 -16 -41 -30 2 -6 19 -29 54 -50 79 -22 25 -44 56 -50 71 -5 14 -16
26 -25 26 -17 0 -18 2 -9 24 5 14 9 14 33 1 15 -7 39 -29 53 -47z m-46 -225
c19 -30 33 -58 30 -61 -3 -3 -7 -3 -9 -1 -27 39 -77 120 -77 124 0 15 23 -11
56 -62z m-3176 -168 c0 -50 -4 -85 -10 -85 -5 0 -10 -15 -10 -33 0 -18 -7 -42
-15 -53 -13 -18 -14 -16 -15 21 0 39 18 197 26 223 2 6 8 12 14 12 6 0 10 -33
10 -85z m787 47 c6 -4 17 -30 24 -57 6 -28 16 -57 20 -66 5 -9 17 -56 28 -105
11 -49 35 -136 54 -194 25 -78 31 -109 24 -122 -9 -13 -16 -5 -43 50 -17 37
-40 87 -50 112 -10 25 -23 52 -30 60 -20 25 -56 159 -61 232 -7 88 1 111 34
90z m-124 -355 c-3 -4 -10 -3 -17 2 -7 6 -16 8 -19 4 -11 -11 -37 19 -37 43 0
27 10 30 29 12 10 -11 15 -9 24 7 10 18 12 16 18 -20 4 -22 5 -44 2 -48z
m-953 58 c0 -15 -38 -55 -52 -55 -16 0 -7 22 20 45 32 29 32 29 32 10z m90
-189 c0 -2 -7 -6 -15 -10 -8 -3 -15 -1 -15 4 0 6 7 10 15 10 8 0 15 -2 15 -4z
m145 -40 c29 -12 28 -13 -37 -19 -38 -3 -77 -11 -89 -17 -33 -18 -37 -1 -6 26
32 27 83 31 132 10z m5802 -192 c-7 -7 -37 7 -37 17 0 6 9 5 21 -1 11 -7 19
-14 16 -16z m-2716 -51 c-26 -50 -50 -81 -51 -65 0 18 54 102 67 102 2 0 -5
-17 -16 -37z m2754 27 c3 -5 2 -10 -4 -10 -5 0 -13 5 -16 10 -3 6 -2 10 4 10
5 0 13 -4 16 -10z m-7795 -104 c0 -2 -8 -10 -17 -17 -16 -13 -17 -12 -4 4 13
16 21 21 21 13z m6702 -56 c11 0 133 -119 123 -120 -6 0 -47 35 -91 78 -45 42
-71 69 -59 60 12 -10 24 -18 27 -18z m1302 31 c3 -5 27 -19 53 -31 53 -25 116
-70 109 -78 -3 -3 -43 19 -88 48 -97 63 -106 70 -91 70 7 0 14 -4 17 -9z
m-9384 -9 c0 -12 -68 -48 -75 -40 -3 3 11 15 32 26 46 25 43 24 43 14z m2675
-21 c-3 -6 -11 -11 -17 -11 -6 0 -6 6 2 15 14 17 26 13 15 -4z m1432 -62 c22
-15 47 -38 56 -52 9 -14 42 -40 74 -57 32 -18 77 -51 99 -72 42 -40 74 -62
107 -74 27 -10 17 -47 -16 -58 -26 -9 -33 -5 -110 72 -45 45 -87 82 -92 82
-15 1 -51 36 -140 135 -80 89 -78 91 22 24z m443 41 c0 -5 -2 -10 -4 -10 -3 0
-8 5 -11 10 -3 6 -1 10 4 10 6 0 11 -4 11 -10z m1090 -610 c0 -20 -2 -22 -10
-10 -5 8 -10 26 -10 40 0 20 2 22 10 10 5 -8 10 -26 10 -40z m45 41 c3 -5 1
-12 -5 -16 -5 -3 -10 1 -10 9 0 18 6 21 15 7z"/>
<path d="M5102 8098 c-7 -7 -12 -42 -12 -84 0 -59 4 -75 18 -86 27 -20 63 -75
74 -114 7 -27 18 -39 43 -50 70 -29 71 -18 6 104 -27 50 -59 121 -72 157 -26
73 -39 91 -57 73z"/>
<path d="M4051 6384 c0 -11 3 -14 6 -6 3 7 2 16 -1 19 -3 4 -6 -2 -5 -13z"/>
<path d="M8645 3190 c3 -5 15 -10 26 -10 10 0 19 5 19 10 0 6 -12 10 -26 10
-14 0 -23 -4 -19 -10z"/>
<path d="M8420 3172 c0 -5 19 -14 43 -21 57 -15 187 -22 187 -10 0 5 -21 9
-46 9 -25 0 -53 4 -62 9 -27 14 -122 24 -122 13z"/>
<path d="M8365 3100 c-16 -6 -17 -9 -5 -14 33 -13 183 -11 162 3 -8 4 -24 7
-38 5 -13 -1 -26 2 -30 7 -6 11 -62 11 -89 -1z"/>
<path d="M8010 3000 c0 -13 28 -25 38 -16 3 4 0 11 -8 16 -20 13 -30 12 -30 0z"/>
<path d="M7650 2882 c0 -11 59 -67 64 -61 9 10 10 38 1 40 -5 1 -19 8 -30 15
-22 16 -35 18 -35 6z"/>
<path d="M7330 2780 c-25 -17 7 -30 75 -30 63 0 92 10 81 29 -9 14 -135 14
-156 1z"/>
<path d="M2370 3100 c-11 -7 -2 -10 33 -10 26 0 47 5 47 10 0 13 -60 13 -80 0z"/>
<path d="M2815 3007 c-17 -13 -17 -14 5 -20 25 -6 60 7 60 23 0 15 -43 12 -65
-3z"/>
<path d="M2740 2990 c0 -5 9 -10 19 -10 11 0 23 5 26 10 4 6 -5 10 -19 10 -14
0 -26 -4 -26 -10z"/>
<path d="M6177 8516 c-63 -73 -78 -96 -59 -96 13 0 77 66 107 110 50 72 19 63
-48 -14z"/>
<path d="M6180 8080 c-9 -18 -8 -25 6 -41 9 -10 23 -19 31 -19 16 0 17 -1 -6
44 -19 36 -20 37 -31 16z"/>
<path d="M5940 7513 c0 -5 -19 -29 -43 -54 -93 -102 -172 -192 -176 -203 -2
-6 -11 -16 -20 -23 -12 -9 -13 -12 -3 -13 20 0 171 156 220 227 45 67 48 73
32 73 -5 0 -10 -3 -10 -7z"/>
<path d="M5220 7329 c0 -5 -36 -9 -80 -9 -44 0 -80 -2 -80 -5 0 -15 34 -55 46
-55 8 0 19 -11 26 -24 13 -30 58 -50 95 -43 16 3 44 8 63 12 29 5 90 52 90 69
0 8 -90 48 -126 56 -19 5 -34 4 -34 -1z"/>
<path d="M5541 7301 c-17 -11 -8 -39 14 -47 21 -9 24 -4 18 29 -6 29 -10 32
-32 18z"/>
<path d="M5472 6869 c2 -6 7 -10 11 -10 4 1 15 1 25 1 14 0 15 2 2 10 -20 13
-43 13 -38 -1z"/>
<path d="M7220 6129 c0 -5 5 -7 10 -4 6 3 10 8 10 11 0 2 -4 4 -10 4 -5 0 -10
-5 -10 -11z"/>
<path d="M4742 5675 c1 -25 5 -45 10 -45 11 0 10 77 -1 84 -5 4 -9 -14 -9 -39z"/>
<path d="M4444 5275 c-4 -23 -2 -41 5 -48 17 -17 33 5 29 43 -4 47 -25 49 -34
5z"/>
<path d="M7138 4678 c-9 -29 -19 -71 -22 -93 -8 -51 -11 -213 -4 -220 3 -3 8
43 12 103 3 59 11 123 16 142 17 57 28 120 21 120 -4 0 -15 -24 -23 -52z"/>
<path d="M4335 4490 c3 -5 8 -10 11 -10 2 0 4 5 4 10 0 6 -5 10 -11 10 -5 0
-7 -4 -4 -10z"/>
<path d="M4580 4333 c-7 -32 -17 -63 -22 -70 -13 -16 42 -120 84 -159 l30 -29
-4 78 c-6 87 -18 112 -40 78 -13 -21 -38 -29 -38 -13 0 5 11 19 25 32 14 13
25 32 25 42 0 23 -30 98 -39 98 -5 0 -14 -26 -21 -57z"/>
<path d="M4746 3282 c-3 -6 1 -15 8 -21 8 -7 17 -8 20 -3 3 6 -1 15 -8 21 -8
7 -17 8 -20 3z"/>
<path d="M5001 3080 c0 -8 4 -46 9 -85 12 -79 31 -112 22 -39 -5 52 -30 148
-31 124z"/>
<path d="M6960 2306 c0 -3 -9 -41 -21 -84 -20 -75 -44 -126 -79 -167 -27 -31
-41 -82 -50 -181 -9 -94 -18 -123 -56 -185 -22 -35 -50 -146 -41 -156 3 -2 11
6 18 18 6 13 21 32 31 43 22 23 64 86 67 101 2 6 6 15 11 20 4 6 8 66 9 134 1
122 2 125 40 207 22 46 43 84 46 84 4 0 5 -17 4 -37 -8 -121 7 -201 32 -176 9
9 8 38 -4 125 -13 90 -14 128 -6 182 6 37 8 70 5 73 -3 4 -6 3 -6 -1z"/>
<path d="M6941 1864 c0 -11 3 -14 6 -6 3 7 2 16 -1 19 -3 4 -6 -2 -5 -13z"/>
<path d="M5168 1694 c-3 -5 2 -54 12 -109 11 -64 20 -94 24 -83 13 28 -23 215
-36 192z"/>
</g>
</svg>
